<?xml version="1.0" encoding="UTF-8"?>
<svg id="Layer_1" data-name="Layer 1" xmlns="http://www.w3.org/2000/svg" viewBox="0 0 652.91 159.53">
  <defs>
    <style>
      .cls-1, .cls-2 {
        stroke-width: 0px;
      }

      .cls-2 {
        fill: #b0b3b2;
      }
    </style>
  </defs>
  <path class="cls-1" d="m652.91,100.62c0-4.2-1.24-8.39-3.68-12.46l-.5-.75c-5.48-7.41-12.01-8.96-16.52-8.96h-55.18c-2.98,0-6.04.81-9.35,2.47l-.23.11-.94.58c-.2.14-.38.28-.57.42l-3.93-3.93h-66.83v-10.45l-13.71-13.91c.42-.22.83-.46,1.24-.71l.75-.51c6.13-4.62,9.37-10.99,9.37-18.42v-12.32c0-2.3-.37-4.52-1.11-6.59-3.26-9.96-10.79-14.67-20.67-14.67h-69.45l-2.56,1.56-1.6-1.6h-83.72l-3.07,3.07-2.77-2.77h-31.5l-5.01,5.09-6.44-5.59-66.52-.04-5.16,5.83-7.86-5.58h-90.46l-5.68,5.68c-3.85-3.99-9.01-6.16-15.02-6.16H5.78L0,5.78v68.96l5.78,5.78h68.62c3.89,0,7.78-1.11,11.56-3.31l.71-.41.62-.53c.67-.56,1.3-1.15,1.89-1.75v.22l5.77,5.78,118.78.09,5.71-10.62h27.47c.73,1.37,1.35,2.51,1.86,3.42,1.61,2.87,4.05,7.2,9.73,7.2h18.86v56.05l.61,4.89.24.78c3.14,10.19,10.81,16.03,21.02,16.03l117.48.83,5.78-5.78v-17.51h48.8l5.78-5.78v-19.55h23.84v43.18l5.78,5.78h25.1l5.77-5.78v-43.18h18.79v3.32l.61,4.94.24.78c1.03,3.32,2.53,6.18,4.44,8.53h-.48l-4.81,6.39v3.12c0,2.93.83,6.12,2.63,10.05l.31.62c2.57,4.68,6.6,8.11,11.67,9.92l3.28,1.28h61.75l7.18-3.7c6.39-4.65,9.76-11.14,9.76-18.78v-11.79l-.61-4.94-.24-.78c-1.09-3.52-2.71-6.53-4.79-8.96l5.65-5.65v-4.3Z"/>
  <g>
    <g>
      <path class="cls-2" d="m8.61,8.3h64.62c5.6,0,9.44,2.92,11.53,8.75.49,1.33.74,2.7.74,4.09v36.29c0,4.15-1.76,7.7-5.27,10.66-2.35,1.36-4.64,2.05-6.88,2.05H8.61l-.3-.3V8.61l.3-.3Zm17.41,13.58v35.81h41.78V21.88H26.01Z"/>
      <path class="cls-2" d="m97.79,8.78h75.98l.3.3v12.88l-.3.3h-58.88v34.38h58.88l.3.3v12.88l-.3.3h-75.98l-.3-.3V9.08l.3-.3Zm22.63,24.67h48.74l.26.26v12.92l-.26.3h-48.74l-.31-.3v-12.92l.31-.26Z"/>
      <path class="cls-2" d="m244.76,7.78c.35.23,4.82,8.36,13.4,24.37l20.84,37.95-.17.13h-21.37c-.29,0-2.12-3.25-5.48-9.75l-.74-.87h-20.37l-2.09.13-1.92-.13h-10.18v-.3l7.4-13.14h8.7l2.35-.13,2.39.13h6.61v-.13c-7.57-14.13-11.6-21.51-12.1-22.15l-24.94,46.35h-21.41l-.31-.3L219.65,7.91l.13-.13h24.98Z"/>
      <path class="cls-2" d="m316.56,8.78h75.98l.3.3v12.88l-.3.3h-58.88v34.38h58.88l.3.3v12.88l-.3.3h-75.98l-.3-.3V9.08l.3-.3Zm22.63,24.67h48.74l.26.26v12.92l-.26.3h-48.74l-.31-.3v-12.92l.31-.26Z"/>
      <path class="cls-2" d="m404.44,7.82h65.58c5.89,0,9.83,3.12,11.84,9.36.41,1.1.61,2.29.61,3.57v12.32c0,4.47-1.89,8.12-5.66,10.97-2.09,1.28-4.31,1.91-6.66,1.91h-9.49l24.15,24.5v.13h-23.85l-37.25-37.08v-.17h40.78v-11.71h-42.25v.13l-.17,48.7-.13.13h-17.49l-.3-.3V8.13l.3-.3Z"/>
    </g>
    <g>
      <path class="cls-2" d="m369.82,87.7h16.67l.3.26v60.31l-.3.3h-16.67l-.31-.3v-60.31l.31-.26Z"/>
      <path class="cls-2" d="m394.79,87.22h76.24l.31.3v12.97l-.31.26h-58.92v47.74l-.31.3h-17.01l-.31-.3v-60.97l.31-.3Zm22.85,24.76h48.74l.3.26v12.97l-.3.3h-48.74l-.3-.3v-12.97l.3-.26Z"/>
      <path class="cls-2" d="m479.39,86.4h77.72l.3.3v13.19l-.3.3h-29.94v48.65l-.3.3h-17.36l-.3-.3v-48.65h-29.81l-.3-.3v-13.19l.3-.3Z"/>
      <path class="cls-2" d="m576,86.75h55.18c3.45,0,6.45,1.73,9.01,5.18,1.57,2.61,2.35,5.16,2.35,7.66v.44l-.3.3h-59.75v11.36h47.35c6.21,0,10.3,3.19,12.27,9.57l.44,3.39v11.36c0,4.61-1.97,8.36-5.92,11.23-1.54.87-3.35,1.47-5.44,1.78l-.13.13h-54.92c-.29-.2-1.32-.45-3.09-.74-2.93-1.04-5.14-2.92-6.61-5.61-1.19-2.61-1.78-4.67-1.78-6.18l.13-.17h59.92v-11.05h-47.35c-6.21,0-10.3-3.19-12.27-9.57l-.43-3.39v-12.84c0-4.7,2.06-8.49,6.18-11.36,1.97-.99,3.7-1.48,5.18-1.48Z"/>
    </g>
    <path class="cls-2" d="m285.97,9.08h17.02l.3.3v126.23h58.92l.3.26v11.79l-.3.3h-64.01c-6.12,0-10.15-3.15-12.1-9.44l-.44-3.35V9.39l.3-.3Z"/>
  </g>
</svg>